<?xml version="1.0" encoding="UTF-8"?>
<!DOCTYPE svg PUBLIC "-//W3C//DTD SVG 1.1//EN" "http://www.w3.org/Graphics/SVG/1.1/DTD/svg11.dtd">
<!-- Creator: CorelDRAW X8 -->
<svg xmlns="http://www.w3.org/2000/svg" xml:space="preserve" width="15596px" height="741px" version="1.1" style="shape-rendering:geometricPrecision; text-rendering:geometricPrecision; image-rendering:optimizeQuality; fill-rule:evenodd; clip-rule:evenodd"
viewBox="0 0 17021 808"
 xmlns:xlink="http://www.w3.org/1999/xlink">
 <defs>
  <style type="text/css">
   <![CDATA[
    .fil0 {fill:#FEFEFE}
   ]]>
  </style>
 </defs>
 <g id="Слой_x0020_1">
  <metadata id="CorelCorpID_0Corel-Layer"/>
  <path class="fil0" d="M0 808l17021 0 0 -808 -883 81c-241,31 -657,49 -884,81l-1764 164 0 -326c-90,0 -222,30 -311,45l-928 149c-194,33 -3648,603 -3740,601l-2482 -398c-417,-70 -828,-131 -1247,-200 -115,-20 -1153,-197 -1250,-197l0 326c-138,0 -313,-26 -442,-40 -150,-16 -306,-23 -441,-41 -267,-34 -651,-50 -882,-83 -221,-32 -643,-50 -884,-81l-883 -81 0 808 0 0z"/>
 </g>
</svg>
